<?xml version="1.0" encoding="utf-8"?>
<!-- Generator: Adobe Illustrator 15.0.2, SVG Export Plug-In . SVG Version: 6.00 Build 0)  -->
<!DOCTYPE svg PUBLIC "-//W3C//DTD SVG 1.1//EN" "http://www.w3.org/Graphics/SVG/1.1/DTD/svg11.dtd">
<svg version="1.1" id="Layer_1" xmlns="http://www.w3.org/2000/svg" xmlns:xlink="http://www.w3.org/1999/xlink" x="0px" y="0px"
	 width="18px" height="18px" viewBox="0 0 18 18" enable-background="new 0 0 18 18" xml:space="preserve">
<g>
	<path fill-rule="evenodd" clip-rule="evenodd" fill="#FFFFFF" d="M16.972,10.294c0.299-0.962,0.299-2.559,0-3.522
		c-0.647-0.031-1.149-0.207-1.815-0.219C15.079,6.17,14.891,5.9,14.771,5.562c0.39-0.472,0.775-0.948,1.101-1.486
		c-0.646-0.986-1.431-1.833-2.476-2.421c-0.496,0.364-0.974,0.75-1.484,1.101c-0.268-0.188-0.658-0.256-0.934-0.44
		c-0.042-0.637-0.183-1.175-0.22-1.815C9.688,0.291,8.31,0.284,7.24,0.5C7.211,1.167,7.038,1.69,7.021,2.371
		C6.649,2.458,6.352,2.618,6.03,2.755C5.559,2.365,5.083,1.98,4.546,1.654c-0.975,0.658-1.844,1.42-2.418,2.478
		c0.364,0.497,0.749,0.974,1.099,1.485C3.021,5.87,2.982,6.289,2.787,6.553C2.152,6.577,1.656,6.74,1.027,6.772
		C0.713,7.716,0.765,9.217,0.972,10.24c0.574,0.141,1.205,0.224,1.869,0.274c0.088,0.37,0.248,0.67,0.385,0.99
		c-0.39,0.473-0.775,0.949-1.099,1.487c0.649,0.982,1.422,1.84,2.474,2.421c0.497-0.364,0.974-0.749,1.483-1.101
		c0.253,0.206,0.672,0.244,0.936,0.44C7.051,15.4,7.21,15.919,7.24,16.567c1.049,0.217,2.471,0.217,3.519,0
		c0.035-0.661,0.19-1.203,0.22-1.872c0.369-0.086,0.67-0.247,0.989-0.384c0.472,0.39,0.947,0.776,1.485,1.101
		c0.98-0.65,1.838-1.425,2.419-2.478c-0.364-0.496-0.75-0.974-1.101-1.484c0.206-0.254,0.246-0.672,0.439-0.936
		C15.838,10.482,16.356,10.338,16.972,10.294z M9.035,12.052c-1.941,0-3.514-1.574-3.514-3.517c0-1.942,1.573-3.517,3.514-3.517
		c1.939,0,3.513,1.574,3.513,3.517C12.548,10.478,10.974,12.052,9.035,12.052z"/>
	<circle fill-rule="evenodd" clip-rule="evenodd" fill="#FFFFFF" cx="9.035" cy="8.534" r="1.901"/>
</g>
</svg>
