<?xml version="1.0" encoding="utf-8"?>
<!-- Generator: Adobe Illustrator 15.0.2, SVG Export Plug-In . SVG Version: 6.00 Build 0)  -->
<!DOCTYPE svg PUBLIC "-//W3C//DTD SVG 1.1//EN" "http://www.w3.org/Graphics/SVG/1.1/DTD/svg11.dtd">
<svg version="1.1" id="Layer_2" xmlns="http://www.w3.org/2000/svg" xmlns:xlink="http://www.w3.org/1999/xlink" x="0px" y="0px"
	 width="213px" height="97px" viewBox="0 0 213 97" enable-background="new 0 0 213 97" xml:space="preserve">
<path fill="#FFFFFF" d="M31.303,1.272c11.873,0,17.81,6.414,17.81,19.242c0,8.643-2.167,16.721-6.5,24.237
	c-3.084,5.41-7.197,9.278-12.338,11.604c-2.644,1.176-5.282,1.763-7.914,1.763c-2.632,0-4.768-0.27-6.408-0.808
	c-5.361-1.812-8.042-6.573-8.042-14.285c0-5.165,0.967-10.661,2.901-16.488c3.084-9.4,7.319-15.325,12.706-17.773
	c1.493-0.686,3.042-1.028,4.646-1.028c1.603,0,2.956,0.208,4.058,0.624c-2.179,1.298-4.333,4.076-6.463,8.336
	c-3.085,6.096-5.154,12.853-6.206,20.271c-0.343,2.302-0.514,4.419-0.514,6.353c0,5.802,1.456,8.703,4.37,8.703
	c0.024,0,0.049,0,0.074,0c2.423,0,4.847-1.763,7.271-5.288c2.423-3.525,4.425-7.974,6.004-13.348
	c1.579-5.374,2.369-10.466,2.369-15.276c0-4.811-0.661-8.244-1.983-10.301c-1.322-2.056-3.869-3.084-7.638-3.084
	c-6.022,0-11.14,1.781-15.35,5.343c-4.211,3.562-6.316,8.232-6.316,14.009c0,1.469,0.128,2.442,0.386,2.919
	c0.257,0.478,0.385,0.851,0.385,1.12c-2.448,0-4.327-0.478-5.637-1.432s-1.964-2.656-1.964-5.104c0-2.447,0.832-4.908,2.497-7.381
	c3.549-5.19,9.021-8.936,16.415-11.237C23.591,1.835,27.385,1.272,31.303,1.272z"/>
<path fill="#FFFFFF" d="M48.895,67.151c-0.44-0.294-0.661-0.747-0.661-1.359c0-0.808,0.648-1.897,1.946-3.268
	c1.297-1.372,1.946-2.437,1.946-3.195s-0.417-1.408-1.249-1.946c-2.179-1.419-3.268-3.072-3.268-4.957s0.569-3.421,1.708-4.608
	c1.139-1.188,2.552-1.781,4.241-1.781c2.448,0,4.04,1.139,4.774,3.415c0.22,0.71,0.331,1.542,0.331,2.497
	c0,2.228-0.888,4.816-2.662,7.767C54.226,62.665,51.857,65.144,48.895,67.151z"/>
<path fill="#FFFFFF" d="M97.329,16.328c2.252-1.297,3.377-3.623,3.377-6.977c0-0.979-0.397-1.983-1.193-3.011
	c-0.796-1.028-2.252-1.542-4.37-1.542c-2.118,0-3.801,0.569-5.049,1.708c-1.249,1.139-1.873,2.626-1.873,4.462
	s0.245,3.305,0.735,4.407c0.881,2.032,2.423,4.015,4.627,5.949l3.084,2.791c2.741,2.448,4.602,4.48,5.582,6.096
	c1.935,3.256,2.901,6.562,2.901,9.915c0,6.242-2.154,11.065-6.463,14.468c-3.893,3.109-8.789,4.664-14.688,4.664
	c-7.296,0-12.18-2.338-14.652-7.014c-0.857-1.64-1.286-3.55-1.286-5.729c0-3.941,1.126-7.014,3.378-9.218
	c2.252-2.203,4.774-3.305,7.565-3.305c2.791,0,4.786,0.845,5.985,2.534c0.465,0.637,0.722,1.444,0.771,2.423
	c-3.844,0-6.513,1.262-8.005,3.783c-0.539,0.905-0.808,1.922-0.808,3.048c0,2.13,0.63,3.904,1.891,5.324
	c1.261,1.42,3.103,2.13,5.527,2.13c2.423,0,4.449-0.869,6.077-2.607c1.628-1.737,2.442-3.941,2.442-6.609s-0.38-4.866-1.139-6.592
	c-0.759-1.726-1.714-3.335-2.864-4.829c-1.151-1.493-2.387-2.919-3.709-4.278c-1.322-1.359-2.558-2.736-3.708-4.131
	c-2.669-3.231-4.003-6.377-4.003-9.438c0-3.868,1.671-7.081,5.013-9.639c3.341-2.558,7.46-3.837,12.357-3.837
	c6.046,0,9.866,1.836,11.458,5.508c0.439,0.979,0.66,2.369,0.66,4.168s-0.551,3.41-1.652,4.829c-1.102,1.42-2.479,2.13-4.131,2.13
	C99.513,17.907,98.234,17.381,97.329,16.328z"/>
<path fill="#FFFFFF" d="M140.329,44.2c-5.631,9.278-12.521,13.917-20.674,13.917c-3.575,0-6.427-0.924-8.557-2.772
	c-2.13-1.848-3.194-4.902-3.194-9.162c0-5.729,1.456-11.273,4.369-16.635c2.228-4.088,5.264-7.001,9.107-8.74
	c1.983-0.93,4.039-1.396,6.169-1.396c3.477,0,5.839,0.655,7.088,1.965c1.248,1.31,1.872,3.054,1.872,5.233
	c0,4.284-1.726,7.926-5.178,10.925c-3.451,2.999-7.491,4.646-12.118,4.938c-0.122,1.421-0.184,2.424-0.184,3.012
	c0,2.57,0.453,4.266,1.359,5.086c0.905,0.82,2.179,1.23,3.818,1.23c2.889,0,5.318-0.644,7.29-1.929
	c1.97-1.285,4.058-3.176,6.261-5.673H140.329z M130.708,26.096c0-1.812-0.624-2.717-1.873-2.717
	c-1.836,0.049-3.611,1.67-5.324,4.865c-1.714,3.195-2.95,6.739-3.709,10.631c2.889-0.195,5.429-1.542,7.62-4.039
	C129.612,32.339,130.708,29.426,130.708,26.096z"/>
<path fill="#FFFFFF" d="M180.466,44.2c-3.183,9.278-8.213,13.917-15.093,13.917c-4.431,0-6.892-2.301-7.381-6.903
	c-3.28,4.603-7.105,6.903-11.476,6.903c-4.369,0-7.338-2.142-8.904-6.426c-0.563-1.543-0.845-3.299-0.845-5.27
	s0.171-3.941,0.514-5.912c0.344-1.971,0.869-3.936,1.579-5.894c1.566-4.309,3.807-7.871,6.72-10.686
	c2.913-2.815,6.427-4.223,10.54-4.223c2.153,0,3.708,0.361,4.663,1.083s1.433,1.634,1.433,2.735v0.551l0.808-4.002h10.833
	l-5.398,25.558c-0.22,0.857-0.33,1.665-0.33,2.424c0,2.154,1.028,3.231,3.084,3.231c2.668,0,4.701-2.362,6.096-7.087H180.466z
	 M161.518,27.234c0-0.465-0.215-1.059-0.643-1.781c-0.429-0.722-1.34-1.083-2.735-1.083s-2.755,0.747-4.076,2.24
	c-3.183,3.599-5.178,8.764-5.986,15.496c-0.122,1.028-0.184,2.118-0.184,3.269c0,2.228,0.465,3.782,1.396,4.664
	c0.538,0.538,1.212,0.808,2.021,0.808c1.492,0,2.852-0.594,4.075-1.781c1.225-1.188,2.069-2.81,2.534-4.865L161.518,27.234z"/>
<path fill="#FFFFFF" d="M192.437,23.966c2.448-2.791,5.374-4.187,8.777-4.187c2.398,0,4.394,0.661,5.985,1.983
	c1.591,1.322,2.387,3.281,2.387,5.875c0,2.595-0.417,5.533-1.248,8.813l-1.8,7.271c-0.392,1.592-0.588,2.889-0.588,3.893
	s0.215,1.793,0.643,2.368c0.429,0.575,1.23,0.863,2.405,0.863c1.176,0,1.995-0.159,2.461-0.478
	c-0.367,2.718-1.347,4.688-2.938,5.912c-1.592,1.225-3.244,1.836-4.958,1.836c-3.011,0-5.129-0.881-6.353-2.644
	c-1.078-1.469-1.616-3.323-1.616-5.563s0.563-5.612,1.689-10.117c1.126-4.504,1.689-7.613,1.689-9.327
	c0-2.57-0.906-3.855-2.718-3.855s-3.428,1.432-4.847,4.296c-0.417,0.808-0.76,1.689-1.028,2.644l-5.104,24.126h-10.833l7.969-37.603
	h10.833L192.437,23.966z"/>
<g>
	<path fill="#FFFFFF" d="M6.593,89.799c-0.7,0-1.345-0.139-1.934-0.417c-0.59-0.278-1.099-0.657-1.526-1.138
		c-0.428-0.479-0.761-1.035-1.001-1.67c-0.24-0.636-0.359-1.315-0.359-2.041s0.113-1.409,0.34-2.05
		c0.226-0.643,0.541-1.199,0.942-1.672c0.401-0.473,0.884-0.849,1.448-1.127s1.176-0.418,1.836-0.418
		c0.791,0,1.497,0.193,2.118,0.583c0.622,0.389,1.108,0.895,1.458,1.516v-5.946h2.137v11.66c0,0.44,0.207,0.673,0.622,0.699v1.827
		c-0.22,0.038-0.415,0.064-0.583,0.078c-0.169,0.013-0.325,0.02-0.467,0.02c-0.803-0.078-1.257-0.447-1.36-1.108l-0.039-0.836
		c-0.388,0.661-0.907,1.166-1.555,1.517C8.024,89.625,7.332,89.799,6.593,89.799z M7.137,87.973c0.272,0,0.557-0.052,0.855-0.155
		s0.576-0.245,0.835-0.428c0.259-0.181,0.486-0.395,0.681-0.641c0.194-0.246,0.331-0.512,0.408-0.798v-2.662
		c-0.117-0.311-0.279-0.599-0.486-0.865c-0.208-0.265-0.444-0.498-0.709-0.699c-0.266-0.201-0.548-0.356-0.846-0.467
		c-0.298-0.109-0.596-0.164-0.894-0.164c-0.454,0-0.865,0.097-1.234,0.291s-0.687,0.453-0.952,0.777s-0.47,0.696-0.612,1.117
		c-0.143,0.422-0.213,0.852-0.213,1.293c0,0.466,0.08,0.906,0.243,1.321c0.162,0.415,0.382,0.774,0.661,1.078
		c0.279,0.305,0.612,0.548,1.001,0.729S6.684,87.973,7.137,87.973z"/>
	<path fill="#FFFFFF" d="M19.458,89.799c-0.791,0-1.509-0.139-2.157-0.417c-0.648-0.278-1.202-0.657-1.662-1.138
		c-0.46-0.479-0.816-1.035-1.069-1.67c-0.252-0.636-0.379-1.309-0.379-2.022c0-0.712,0.126-1.389,0.379-2.03
		c0.253-0.641,0.609-1.204,1.069-1.69c0.46-0.485,1.014-0.868,1.662-1.146c0.647-0.278,1.373-0.418,2.176-0.418
		c0.79,0,1.506,0.143,2.147,0.428c0.642,0.285,1.188,0.663,1.642,1.137c0.453,0.473,0.8,1.023,1.04,1.652
		c0.24,0.628,0.359,1.285,0.359,1.973c0,0.155-0.006,0.301-0.019,0.437c-0.013,0.137-0.026,0.249-0.039,0.34h-8.143
		c0.039,0.454,0.146,0.862,0.32,1.225c0.175,0.363,0.401,0.677,0.681,0.942c0.278,0.266,0.596,0.47,0.952,0.612
		c0.356,0.143,0.729,0.214,1.118,0.214c0.285,0,0.566-0.036,0.846-0.106c0.278-0.071,0.535-0.176,0.768-0.312
		c0.233-0.137,0.44-0.302,0.622-0.495c0.181-0.195,0.323-0.408,0.427-0.642l1.827,0.524c-0.35,0.765-0.929,1.39-1.739,1.875
		C21.476,89.557,20.533,89.799,19.458,89.799z M22.548,83.756c-0.039-0.428-0.146-0.823-0.321-1.186s-0.399-0.67-0.67-0.923
		c-0.272-0.253-0.59-0.45-0.953-0.593s-0.745-0.214-1.146-0.214c-0.402,0-0.781,0.071-1.137,0.214
		c-0.356,0.143-0.67,0.34-0.942,0.593c-0.272,0.253-0.493,0.561-0.661,0.923s-0.271,0.758-0.311,1.186H22.548z"/>
	<path fill="#FFFFFF" d="M30.186,89.799c-0.415,0-0.833-0.031-1.253-0.096c-0.421-0.066-0.835-0.159-1.244-0.282
		s-0.797-0.272-1.166-0.446c-0.37-0.176-0.697-0.373-0.981-0.594l0.894-1.438c1.244,0.869,2.481,1.302,3.712,1.302
		c0.647,0,1.159-0.122,1.535-0.368s0.564-0.597,0.564-1.05c0-0.428-0.21-0.741-0.632-0.942c-0.421-0.2-1.091-0.411-2.011-0.632
		c-0.635-0.155-1.179-0.313-1.632-0.476s-0.823-0.344-1.108-0.545c-0.285-0.2-0.492-0.439-0.622-0.719
		c-0.13-0.278-0.194-0.612-0.194-1.001c0-0.518,0.103-0.978,0.311-1.38c0.207-0.401,0.489-0.741,0.845-1.021
		c0.356-0.277,0.777-0.488,1.264-0.631c0.486-0.143,1.007-0.214,1.564-0.214c0.738,0,1.451,0.116,2.137,0.351
		c0.687,0.232,1.303,0.55,1.846,0.951l-0.913,1.302c-0.972-0.725-2.008-1.088-3.109-1.088c-0.544,0-1.004,0.113-1.38,0.34
		c-0.376,0.227-0.563,0.587-0.563,1.079c0,0.207,0.039,0.382,0.117,0.525c0.078,0.142,0.204,0.265,0.379,0.368
		c0.175,0.104,0.405,0.198,0.69,0.282c0.285,0.085,0.635,0.178,1.049,0.281c0.699,0.169,1.302,0.337,1.807,0.506
		c0.505,0.168,0.923,0.366,1.254,0.593c0.33,0.227,0.573,0.492,0.729,0.796c0.155,0.305,0.233,0.671,0.233,1.099
		c0,0.479-0.097,0.914-0.292,1.302c-0.194,0.389-0.469,0.719-0.825,0.991c-0.357,0.272-0.791,0.483-1.303,0.632
		C31.374,89.725,30.808,89.799,30.186,89.799z"/>
	<path fill="#FFFFFF" d="M36.094,77.771v-2.352h2.138v2.352H36.094z M36.094,89.605V79.441h2.138v10.164H36.094z"/>
	<path fill="#FFFFFF" d="M44.78,89.703c-0.687,0-1.312-0.14-1.875-0.418c-0.563-0.279-1.05-0.657-1.458-1.137
		c-0.408-0.48-0.726-1.031-0.952-1.652c-0.227-0.622-0.34-1.276-0.34-1.963c0-0.726,0.113-1.409,0.34-2.05
		c0.227-0.643,0.547-1.199,0.962-1.672c0.415-0.473,0.91-0.849,1.487-1.127c0.576-0.278,1.214-0.418,1.914-0.418
		c0.829,0,1.548,0.193,2.157,0.583c0.609,0.389,1.114,0.895,1.516,1.516v-1.924h1.885v9.872c0,0.738-0.136,1.393-0.408,1.963
		c-0.272,0.569-0.651,1.053-1.137,1.448c-0.486,0.395-1.059,0.695-1.72,0.903c-0.661,0.207-1.373,0.312-2.138,0.312
		c-1.127,0-2.06-0.192-2.798-0.573c-0.738-0.383-1.367-0.917-1.885-1.604l1.205-1.128c0.389,0.545,0.89,0.96,1.506,1.244
		c0.615,0.285,1.272,0.428,1.972,0.428c0.44,0,0.858-0.058,1.253-0.175s0.742-0.298,1.04-0.544c0.297-0.246,0.535-0.558,0.709-0.934
		c0.175-0.375,0.263-0.822,0.263-1.341v-1.555c-0.363,0.622-0.862,1.102-1.497,1.438S45.479,89.703,44.78,89.703z M45.479,87.973
		c0.324,0,0.635-0.055,0.933-0.165s0.573-0.259,0.826-0.447c0.253-0.188,0.47-0.401,0.651-0.641c0.182-0.24,0.312-0.496,0.389-0.769
		v-2.662c-0.26-0.647-0.661-1.176-1.205-1.584c-0.544-0.408-1.127-0.611-1.749-0.611c-0.466,0-0.884,0.1-1.253,0.301
		c-0.37,0.2-0.684,0.466-0.943,0.797c-0.259,0.33-0.459,0.703-0.602,1.117s-0.214,0.842-0.214,1.283
		c0,0.466,0.081,0.903,0.243,1.312s0.386,0.765,0.671,1.068c0.285,0.305,0.618,0.548,1.001,0.729
		C44.608,87.883,45.026,87.973,45.479,87.973z"/>
	<path fill="#FFFFFF" d="M62.057,89.605h-2.138v-5.694c0-0.958-0.155-1.655-0.466-2.089c-0.312-0.434-0.758-0.65-1.341-0.65
		c-0.311,0-0.625,0.058-0.943,0.174c-0.317,0.117-0.612,0.282-0.884,0.495c-0.272,0.215-0.515,0.468-0.729,0.759
		c-0.214,0.292-0.379,0.612-0.496,0.961v6.045h-2.138V79.441h1.943v2.041c0.389-0.688,0.952-1.228,1.691-1.623
		c0.738-0.396,1.555-0.593,2.449-0.593c0.609,0,1.11,0.109,1.506,0.33c0.395,0.221,0.706,0.521,0.933,0.904
		c0.227,0.382,0.385,0.823,0.476,1.321c0.09,0.499,0.136,1.026,0.136,1.583V89.605z"/>
	<path fill="#FFFFFF" d="M69.111,89.799c-0.79,0-1.509-0.139-2.157-0.417c-0.648-0.278-1.202-0.657-1.662-1.138
		c-0.459-0.479-0.816-1.035-1.069-1.67c-0.252-0.636-0.378-1.309-0.378-2.022c0-0.712,0.126-1.389,0.378-2.03
		c0.253-0.641,0.609-1.204,1.069-1.69c0.46-0.485,1.014-0.868,1.662-1.146c0.647-0.278,1.373-0.418,2.176-0.418
		c0.791,0,1.506,0.143,2.148,0.428c0.641,0.285,1.188,0.663,1.642,1.137c0.453,0.473,0.8,1.023,1.04,1.652
		c0.24,0.628,0.359,1.285,0.359,1.973c0,0.155-0.006,0.301-0.019,0.437c-0.013,0.137-0.026,0.249-0.039,0.34h-8.143
		c0.039,0.454,0.146,0.862,0.32,1.225c0.175,0.363,0.402,0.677,0.681,0.942c0.278,0.266,0.596,0.47,0.952,0.612
		c0.356,0.143,0.729,0.214,1.117,0.214c0.285,0,0.567-0.036,0.846-0.106c0.278-0.071,0.535-0.176,0.768-0.312
		c0.233-0.137,0.44-0.302,0.622-0.495c0.181-0.195,0.323-0.408,0.428-0.642l1.826,0.524c-0.35,0.765-0.929,1.39-1.739,1.875
		C71.129,89.557,70.186,89.799,69.111,89.799z M72.201,83.756c-0.039-0.428-0.146-0.823-0.321-1.186
		c-0.175-0.362-0.398-0.67-0.67-0.923s-0.59-0.45-0.953-0.593s-0.745-0.214-1.146-0.214s-0.781,0.071-1.137,0.214
		c-0.356,0.143-0.67,0.34-0.942,0.593s-0.493,0.561-0.661,0.923s-0.271,0.758-0.311,1.186H72.201z"/>
	<path fill="#FFFFFF" d="M81.743,81.287c-0.829,0.026-1.562,0.217-2.196,0.573c-0.635,0.357-1.095,0.866-1.379,1.526v6.219H76.03
		V79.441h1.981v2.273c0.363-0.7,0.826-1.27,1.39-1.71c0.563-0.44,1.163-0.66,1.797-0.66c0.129,0,0.236,0,0.321,0
		c0.084,0,0.158,0.007,0.224,0.02V81.287z"/>
	<path fill="#FFFFFF" d="M87.048,84.086l8.162-4.937v2.273l-5.072,3.149l5.072,3.07v2.371l-8.162-4.858V84.086z"/>
	<path fill="#FFFFFF" d="M101.739,89.799c-0.698,0-1.343-0.139-1.933-0.417c-0.589-0.278-1.098-0.657-1.525-1.138
		c-0.428-0.479-0.762-1.035-1.001-1.67c-0.239-0.636-0.359-1.315-0.359-2.041s0.113-1.409,0.34-2.05
		c0.227-0.643,0.541-1.199,0.943-1.672c0.402-0.473,0.884-0.849,1.448-1.127c0.564-0.278,1.175-0.418,1.836-0.418
		c0.79,0,1.496,0.193,2.118,0.583c0.622,0.389,1.107,0.895,1.458,1.516v-5.946h2.138v11.66c0,0.44,0.207,0.673,0.621,0.699v1.827
		c-0.22,0.038-0.414,0.064-0.583,0.078c-0.168,0.013-0.323,0.02-0.466,0.02c-0.804-0.078-1.257-0.447-1.361-1.108l-0.038-0.836
		c-0.389,0.661-0.907,1.166-1.555,1.517C103.172,89.625,102.479,89.799,101.739,89.799z M102.284,87.973
		c0.271,0,0.557-0.052,0.854-0.155s0.577-0.245,0.836-0.428c0.26-0.181,0.486-0.395,0.681-0.641c0.193-0.246,0.33-0.512,0.408-0.798
		v-2.662c-0.117-0.311-0.279-0.599-0.486-0.865c-0.207-0.265-0.444-0.498-0.71-0.699s-0.547-0.356-0.844-0.467
		c-0.299-0.109-0.597-0.164-0.896-0.164c-0.453,0-0.864,0.097-1.233,0.291s-0.687,0.453-0.952,0.777
		c-0.265,0.324-0.47,0.696-0.612,1.117c-0.143,0.422-0.214,0.852-0.214,1.293c0,0.466,0.081,0.906,0.243,1.321
		c0.161,0.415,0.382,0.774,0.66,1.078c0.279,0.305,0.613,0.548,1.001,0.729C101.409,87.883,101.83,87.973,102.284,87.973z"/>
	<path fill="#FFFFFF" d="M114.605,89.799c-0.791,0-1.51-0.139-2.157-0.417s-1.202-0.657-1.661-1.138
		c-0.46-0.479-0.816-1.035-1.069-1.67c-0.253-0.636-0.379-1.309-0.379-2.022c0-0.712,0.126-1.389,0.379-2.03
		c0.253-0.641,0.609-1.204,1.069-1.69c0.459-0.485,1.014-0.868,1.661-1.146s1.373-0.418,2.177-0.418c0.79,0,1.506,0.143,2.147,0.428
		c0.641,0.285,1.188,0.663,1.642,1.137c0.453,0.473,0.8,1.023,1.04,1.652c0.239,0.628,0.359,1.285,0.359,1.973
		c0,0.155-0.007,0.301-0.02,0.437c-0.013,0.137-0.025,0.249-0.038,0.34h-8.144c0.039,0.454,0.146,0.862,0.321,1.225
		c0.175,0.363,0.401,0.677,0.68,0.942s0.596,0.47,0.952,0.612s0.729,0.214,1.117,0.214c0.285,0,0.567-0.036,0.846-0.106
		c0.279-0.071,0.535-0.176,0.768-0.312c0.233-0.137,0.44-0.302,0.622-0.495c0.182-0.195,0.323-0.408,0.428-0.642l1.827,0.524
		c-0.351,0.765-0.931,1.39-1.74,1.875C116.623,89.557,115.681,89.799,114.605,89.799z M117.695,83.756
		c-0.039-0.428-0.146-0.823-0.32-1.186s-0.398-0.67-0.671-0.923s-0.59-0.45-0.952-0.593s-0.745-0.214-1.146-0.214
		c-0.402,0-0.78,0.071-1.138,0.214c-0.355,0.143-0.67,0.34-0.941,0.593c-0.272,0.253-0.492,0.561-0.661,0.923
		c-0.168,0.362-0.272,0.758-0.311,1.186H117.695z"/>
	<path fill="#FFFFFF" d="M124.089,89.605l-3.888-10.164h2.216l2.896,8.356l2.935-8.356h2.021l-3.887,10.164H124.089z"/>
	<path fill="#FFFFFF" d="M136.371,89.799c-0.791,0-1.51-0.139-2.157-0.417c-0.648-0.278-1.202-0.657-1.661-1.138
		c-0.461-0.479-0.816-1.035-1.069-1.67c-0.253-0.636-0.38-1.309-0.38-2.022c0-0.712,0.127-1.389,0.38-2.03
		c0.253-0.641,0.608-1.204,1.069-1.69c0.459-0.485,1.013-0.868,1.661-1.146c0.647-0.278,1.373-0.418,2.177-0.418
		c0.789,0,1.506,0.143,2.147,0.428c0.641,0.285,1.188,0.663,1.642,1.137c0.453,0.473,0.8,1.023,1.04,1.652
		c0.239,0.628,0.359,1.285,0.359,1.973c0,0.155-0.007,0.301-0.02,0.437c-0.013,0.137-0.026,0.249-0.038,0.34h-8.144
		c0.039,0.454,0.146,0.862,0.321,1.225c0.175,0.363,0.401,0.677,0.68,0.942s0.596,0.47,0.952,0.612s0.729,0.214,1.117,0.214
		c0.285,0,0.566-0.036,0.846-0.106c0.279-0.071,0.534-0.176,0.768-0.312c0.233-0.137,0.44-0.302,0.622-0.495
		c0.182-0.195,0.323-0.408,0.428-0.642l1.827,0.524c-0.351,0.765-0.931,1.39-1.74,1.875
		C138.389,89.557,137.446,89.799,136.371,89.799z M139.461,83.756c-0.039-0.428-0.146-0.823-0.32-1.186
		c-0.175-0.362-0.399-0.67-0.671-0.923c-0.272-0.253-0.59-0.45-0.952-0.593s-0.746-0.214-1.146-0.214
		c-0.402,0-0.78,0.071-1.138,0.214c-0.356,0.143-0.67,0.34-0.941,0.593c-0.272,0.253-0.492,0.561-0.661,0.923
		c-0.168,0.362-0.272,0.758-0.312,1.186H139.461z"/>
	<path fill="#FFFFFF" d="M143.309,75.419h2.138v11.193c0,0.376,0.097,0.671,0.291,0.884c0.194,0.215,0.466,0.321,0.816,0.321
		c0.142,0,0.311-0.022,0.505-0.068c0.195-0.045,0.376-0.106,0.544-0.184l0.312,1.729c-0.312,0.143-0.68,0.255-1.107,0.339
		s-0.811,0.127-1.147,0.127c-0.738,0-1.314-0.201-1.729-0.603s-0.621-0.972-0.621-1.71V75.419z"/>
	<path fill="#FFFFFF" d="M153.627,89.799c-0.803,0-1.525-0.143-2.167-0.427c-0.642-0.285-1.188-0.667-1.643-1.146
		c-0.453-0.479-0.803-1.04-1.049-1.682c-0.246-0.641-0.369-1.312-0.369-2.011c0-0.7,0.123-1.37,0.369-2.012
		c0.246-0.641,0.6-1.201,1.059-1.681c0.461-0.479,1.012-0.861,1.652-1.146c0.642-0.285,1.357-0.428,2.147-0.428
		s1.507,0.143,2.147,0.428c0.642,0.285,1.191,0.667,1.652,1.146c0.459,0.479,0.812,1.04,1.059,1.681
		c0.246,0.642,0.369,1.312,0.369,2.012c0,0.699-0.123,1.37-0.369,2.011c-0.246,0.642-0.6,1.202-1.059,1.682
		c-0.461,0.479-1.011,0.861-1.652,1.146C155.134,89.656,154.417,89.799,153.627,89.799z M150.596,84.552
		c0,0.493,0.077,0.946,0.233,1.361c0.155,0.415,0.369,0.773,0.641,1.079c0.272,0.304,0.593,0.543,0.963,0.719
		c0.368,0.175,0.767,0.262,1.194,0.262s0.826-0.087,1.195-0.262c0.369-0.176,0.69-0.418,0.962-0.729
		c0.271-0.312,0.486-0.674,0.642-1.089s0.233-0.867,0.233-1.36c0-0.479-0.078-0.93-0.233-1.351s-0.37-0.787-0.642-1.099
		c-0.271-0.311-0.593-0.554-0.962-0.729s-0.768-0.262-1.195-0.262c-0.415,0-0.806,0.09-1.176,0.271
		c-0.369,0.182-0.689,0.428-0.962,0.738s-0.489,0.678-0.65,1.099C150.677,83.623,150.596,84.073,150.596,84.552z"/>
	<path fill="#FFFFFF" d="M166.474,89.799c-0.816,0-1.532-0.193-2.147-0.582s-1.111-0.895-1.486-1.516v6.043h-2.138V79.441h1.885
		v1.826c0.389-0.608,0.894-1.094,1.516-1.457c0.622-0.362,1.321-0.544,2.1-0.544c0.686,0,1.321,0.143,1.904,0.428
		s1.088,0.667,1.516,1.146s0.761,1.036,1.001,1.671c0.239,0.635,0.359,1.302,0.359,2.002c0,0.738-0.11,1.428-0.33,2.07
		c-0.222,0.641-0.532,1.198-0.934,1.67c-0.401,0.475-0.877,0.85-1.429,1.128C167.739,89.66,167.134,89.799,166.474,89.799z
		 M165.794,87.973c0.439,0,0.848-0.097,1.224-0.292c0.375-0.193,0.692-0.452,0.952-0.776c0.259-0.323,0.464-0.693,0.612-1.108
		c0.148-0.414,0.224-0.842,0.224-1.282c0-0.467-0.081-0.906-0.243-1.321s-0.385-0.778-0.671-1.089
		c-0.284-0.311-0.621-0.557-1.01-0.738s-0.804-0.271-1.243-0.271c-0.272,0-0.559,0.052-0.855,0.155
		c-0.298,0.104-0.58,0.246-0.846,0.427c-0.266,0.182-0.496,0.393-0.689,0.633c-0.195,0.239-0.331,0.502-0.408,0.786v2.663
		c0.129,0.311,0.297,0.602,0.505,0.874c0.207,0.272,0.44,0.506,0.699,0.7c0.26,0.193,0.538,0.349,0.836,0.466
		C165.178,87.914,165.482,87.973,165.794,87.973z"/>
	<path fill="#FFFFFF" d="M177.512,89.799c-0.791,0-1.511-0.139-2.158-0.417s-1.201-0.657-1.66-1.138
		c-0.461-0.479-0.816-1.035-1.069-1.67c-0.253-0.636-0.38-1.309-0.38-2.022c0-0.712,0.127-1.389,0.38-2.03
		c0.253-0.641,0.608-1.204,1.069-1.69c0.459-0.485,1.013-0.868,1.66-1.146s1.374-0.418,2.178-0.418c0.789,0,1.505,0.143,2.147,0.428
		c0.641,0.285,1.188,0.663,1.642,1.137c0.453,0.473,0.8,1.023,1.04,1.652c0.239,0.628,0.359,1.285,0.359,1.973
		c0,0.155-0.007,0.301-0.02,0.437c-0.013,0.137-0.026,0.249-0.039,0.34h-8.143c0.039,0.454,0.146,0.862,0.321,1.225
		c0.174,0.363,0.401,0.677,0.679,0.942c0.279,0.266,0.597,0.47,0.953,0.612c0.355,0.143,0.729,0.214,1.117,0.214
		c0.285,0,0.566-0.036,0.846-0.106c0.278-0.071,0.534-0.176,0.767-0.312c0.234-0.137,0.441-0.302,0.623-0.495
		c0.182-0.195,0.323-0.408,0.428-0.642l1.826,0.524c-0.35,0.765-0.93,1.39-1.739,1.875
		C179.528,89.557,178.587,89.799,177.512,89.799z M180.601,83.756c-0.038-0.428-0.146-0.823-0.32-1.186s-0.398-0.67-0.671-0.923
		c-0.271-0.253-0.589-0.45-0.951-0.593c-0.363-0.143-0.746-0.214-1.146-0.214c-0.402,0-0.78,0.071-1.138,0.214
		c-0.356,0.143-0.67,0.34-0.942,0.593c-0.271,0.253-0.492,0.561-0.661,0.923c-0.167,0.362-0.271,0.758-0.311,1.186H180.601z"/>
	<path fill="#FFFFFF" d="M190.143,81.287c-0.829,0.026-1.562,0.217-2.195,0.573c-0.635,0.357-1.096,0.866-1.38,1.526v6.219h-2.138
		V79.441h1.982v2.273c0.361-0.7,0.826-1.27,1.39-1.71s1.162-0.66,1.797-0.66c0.129,0,0.236,0,0.32,0c0.085,0,0.159,0.007,0.224,0.02
		V81.287z"/>
	<path fill="#FFFFFF" d="M202.134,75.808l-9.464,13.798h-2.371l9.445-13.798H202.134z"/>
	<path fill="#FFFFFF" d="M211.909,85.155l-8.181,4.858v-2.371l5.071-3.07l-5.071-3.149v-2.273l8.181,4.937V85.155z"/>
</g>
</svg>
